<svg width="14" height="12" viewBox="0 0 14 12" fill="none" xmlns="http://www.w3.org/2000/svg">
<path fill-rule="evenodd" clip-rule="evenodd" d="M5 0.166992C4.19102 0.166992 3.38144 0.422579 2.7 0.933659L1.23333 2.03366C0.771689 2.37989 0.5 2.92327 0.5 3.50033V9.25301C0.5 10.7283 2.18427 11.5705 3.36452 10.6853C3.84915 10.3218 4.42427 10.1401 5 10.1401C5.57573 10.1401 6.15086 10.3218 6.63548 10.6853L6.7 10.7337C7.38144 11.2447 8.19102 11.5003 9 11.5003C9.80898 11.5003 10.6186 11.2447 11.3 10.7337L12.7667 9.63366C13.2283 9.28743 13.5 8.74405 13.5 8.16699V2.4143C13.5 0.938997 11.8157 0.0968618 10.6355 0.982046C10.1509 1.34552 9.57573 1.52721 9 1.52721C8.42427 1.52721 7.84915 1.34552 7.36452 0.982046L7.3 0.933659C6.61856 0.422579 5.80898 0.166992 5 0.166992ZM3.3 1.73366C3.66283 1.46153 4.07448 1.28743 4.5 1.21133V9.17374C3.88501 9.25687 3.28613 9.49406 2.76452 9.88527C2.24351 10.276 1.5 9.90427 1.5 9.25301V3.50033C1.5 3.23803 1.6235 2.99104 1.83333 2.83366L3.3 1.73366ZM7.23548 9.88527C6.71387 9.49406 6.11499 9.25687 5.5 9.17374V1.21133C5.92552 1.28743 6.33717 1.46153 6.7 1.73366L6.76452 1.78205C7.28613 2.17326 7.88501 2.41045 8.5 2.49357V10.456C8.07448 10.3799 7.66284 10.2058 7.3 9.93366L7.23548 9.88527ZM10.7 9.93366C10.3372 10.2058 9.92552 10.3799 9.5 10.456V2.49357C10.115 2.41045 10.7139 2.17326 11.2355 1.78205C11.7565 1.39129 12.5 1.76304 12.5 2.4143V8.16699C12.5 8.42929 12.3765 8.67628 12.1667 8.83366L10.7 9.93366Z" fill="#FAFAFA"/>
</svg>
