<svg width="16" height="16" viewBox="0 0 16 16" fill="none" xmlns="http://www.w3.org/2000/svg">
<path fill-rule="evenodd" clip-rule="evenodd" d="M7.00779 1.91233C6.77382 2.67406 6.2932 4.34034 6.02464 5.98191C6.72166 6.09443 7.40255 6.16634 8 6.16634C8.59744 6.16634 9.27833 6.09443 9.97536 5.98191C9.70679 4.34034 9.22617 2.67406 8.99221 1.91233C8.66946 1.86016 8.33806 1.83301 8 1.83301C7.66193 1.83301 7.33054 1.86016 7.00779 1.91233ZM10.1237 2.20833C10.3806 3.09768 10.7366 4.45028 10.9589 5.80022C11.9186 5.60252 12.8241 5.36122 13.4817 5.17192C12.7769 3.80862 11.5784 2.74196 10.1237 2.20833ZM13.8689 6.10087C13.1741 6.30314 12.1677 6.5748 11.0956 6.79296C11.1403 7.20747 11.1667 7.61476 11.1667 7.99967C11.1667 8.56128 11.1105 9.17255 11.0224 9.78706C12.3057 9.51951 13.4829 9.17756 14.0873 8.99189C14.1395 8.66914 14.1667 8.33774 14.1667 7.99967C14.1667 7.3365 14.0621 6.69853 13.8689 6.10087ZM13.7914 10.1234C13.0432 10.3395 11.9681 10.6255 10.8434 10.843C10.6258 11.9678 10.3398 13.0429 10.1237 13.791C11.8208 13.1685 13.1688 11.8205 13.7914 10.1234ZM8.99221 14.087C9.17788 13.4825 9.51983 12.3054 9.78738 11.0221C9.17287 11.1101 8.5616 11.1663 8 11.1663C7.43839 11.1663 6.82712 11.1101 6.21262 11.0221C6.48016 12.3054 6.82211 13.4826 7.00778 14.087C7.33053 14.1392 7.66193 14.1663 8 14.1663C8.33806 14.1663 8.66946 14.1392 8.99221 14.087ZM5.8763 13.791C5.6602 13.0429 5.37419 11.9678 5.15663 10.843C4.03189 10.6255 2.9568 10.3395 2.20863 10.1234C2.83122 11.8205 4.17915 13.1685 5.8763 13.791ZM1.91266 8.99189C2.51712 9.17756 3.69427 9.51951 4.97756 9.78706C4.88954 9.17255 4.83333 8.56128 4.83333 7.99967C4.83333 7.61477 4.85971 7.20748 4.90435 6.79296C3.8323 6.5748 2.82585 6.30314 2.13105 6.10088C1.93784 6.69853 1.83333 7.3365 1.83333 7.99967C1.83333 8.33774 1.86048 8.66914 1.91266 8.99189ZM1.21314 5.69193C0.966799 6.4166 0.833328 7.19299 0.833328 7.99967C0.833328 8.50747 0.886219 9.00345 0.986964 9.48223C1.56956 12.251 3.74869 14.4301 6.51744 15.0127C6.99622 15.1135 7.4922 15.1663 8 15.1663C8.50779 15.1663 9.00377 15.1134 9.48256 15.0127C12.2513 14.4301 14.4304 12.251 15.013 9.48223C15.1138 9.00345 15.1667 8.50747 15.1667 7.99967C15.1667 7.04307 14.979 6.12906 14.6379 5.29337C13.7512 3.12059 11.8291 1.48041 9.48256 0.986645C9.00377 0.885899 8.50779 0.833008 8 0.833008C7.4922 0.833008 6.99622 0.885898 6.51744 0.986644C4.17157 1.48026 2.2499 3.11961 1.36285 5.29141C1.36282 5.29151 1.36278 5.29161 1.36274 5.2917L1.20204 5.68514L1.21314 5.69193ZM2.51832 5.17192C3.17591 5.36122 4.08136 5.60252 5.0411 5.80022C5.26339 4.45028 5.6194 3.09768 5.87628 2.20833C4.42164 2.74196 3.22311 3.80862 2.51832 5.17192ZM5.89092 6.97326C5.85405 7.33361 5.83333 7.67914 5.83333 7.99967C5.83333 8.59843 5.90557 9.2814 6.01871 9.98096C6.71826 10.0941 7.40124 10.1663 8 10.1663C8.59875 10.1663 9.28173 10.0941 9.98128 9.98096C10.0944 9.2814 10.1667 8.59843 10.1667 7.99967C10.1667 7.67914 10.1459 7.33361 10.1091 6.97326C9.38723 7.08888 8.65922 7.16634 8 7.16634C7.34077 7.16634 6.61276 7.08888 5.89092 6.97326Z" fill="white"/>
</svg>
